<svg width="100" height="100" viewBox="0 0 100 100" xmlns="http://www.w3.org/2000/svg" role="img" aria-label="aplyx">
  <title>aplyx</title>
  <!-- The aplyx mark: a dark rounded badge holding a block lowercase "a"
       built from rounded tiles that fade lavender -> purple -> violet ->
       pink top-to-bottom, wired together with thin double-line circuit
       traces - applications routed through a machine. Traced from the
       operator-supplied brand image (2026-07-16). -->
  <rect x="0" y="0" width="100" height="100" rx="22" fill="#191720" />

  <!-- circuit traces (double lines, squared corners, ends tucked under tiles) -->
  <g fill="none" stroke-width="1.6">
    <!-- top bar right edge down into the stem's upper block -->
    <path d="M 74 17.5 H 85.5 V 33 H 78" stroke="#D9D2F4" />
    <path d="M 74 21.5 H 81.5 V 30 H 78" stroke="#D9D2F4" />
    <!-- bowl's left edge dropping down into the pink bottom row -->
    <path d="M 18.5 67.5 V 77.5 H 22" stroke="#9A66EE" />
    <path d="M 22.5 67.5 V 73.5 H 24" stroke="#9A66EE" />
    <!-- bowl bottom across to the stem foot -->
    <path d="M 48 75.5 H 56 V 71.5 H 66" stroke="#F5427B" />
    <path d="M 48 79 H 59.5 V 75 H 66" stroke="#F5427B" />
    <!-- loop under the bowl's pink feet -->
    <path d="M 24 85 V 93 H 46 V 85" stroke="#F5427B" />
    <path d="M 27.5 85 V 89.5 H 42.5 V 85" stroke="#F5427B" />
    <!-- loop under the stem foot -->
    <path d="M 68 85 V 92 H 88 V 85" stroke="#F5427B" />
    <path d="M 71.5 85 V 88.5 H 84.5 V 85" stroke="#F5427B" />
  </g>

  <!-- top of the bowl: 4 contiguous lavender tiles -->
  <rect x="20" y="11" width="13.7" height="16" rx="2.8" fill="#DED8F6" />
  <rect x="34.3" y="11" width="13.7" height="16" rx="2.8" fill="#DBD4F5" />
  <rect x="48.6" y="11" width="13.7" height="16" rx="2.8" fill="#D8D0F4" />
  <rect x="62.9" y="11" width="13.7" height="16" rx="2.8" fill="#D5CCF3" />

  <!-- stem top: brighter 2-tile purple block, sitting a step higher -->
  <rect x="64" y="29.5" width="13.7" height="16" rx="2.8" fill="#B076F0" />
  <rect x="78.3" y="29.5" width="10.7" height="16" rx="2.8" fill="#AC70EF" />

  <!-- bowl upper-left: 3 contiguous purple tiles, a step lower -->
  <rect x="20" y="33.5" width="13.7" height="16" rx="2.8" fill="#BB97F3" />
  <rect x="34.3" y="33.5" width="13.7" height="16" rx="2.8" fill="#B892F2" />
  <rect x="48.6" y="33.5" width="13.7" height="16" rx="2.8" fill="#B58CF1" />

  <!-- middle: bowl left edge (shifted left) + wide stem block -->
  <rect x="16.5" y="51.5" width="15.5" height="16" rx="2.8" fill="#9A66EE" />
  <rect x="64" y="51.5" width="25" height="16" rx="2.8" fill="#8C4BEF" />

  <!-- bottom: pink bowl feet + wide pink stem foot -->
  <rect x="21" y="69.5" width="13.7" height="16" rx="2.8" fill="#F55C82" />
  <rect x="35.3" y="69.5" width="13.7" height="16" rx="2.8" fill="#F54E7C" />
  <rect x="64" y="69.5" width="25" height="16" rx="2.8" fill="#F5427B" />
</svg>
